<?xml version="1.0" standalone="no"?>
<!DOCTYPE svg PUBLIC "-//W3C//DTD SVG 20010904//EN"
 "http://www.w3.org/TR/2001/REC-SVG-20010904/DTD/svg10.dtd">
<svg version="1.0" xmlns="http://www.w3.org/2000/svg"
 width="198.000000pt" height="198.000000pt" viewBox="0 0 198.000000 198.000000"
 preserveAspectRatio="xMidYMid meet">
<metadata>
Created by potrace 1.14, written by Peter Selinger 2001-2017
</metadata>
<g transform="translate(0.000000,198.000000) scale(0.100000,-0.100000)"
fill="#000000" stroke="none">
<path d="M933 1396 c-26 -9 -68 -12 -113 -8 -246 17 -470 -103 -470 -253 0
-27 8 -44 29 -66 80 -79 251 11 251 132 0 53 -15 66 -30 29 -17 -41 -96 -110
-126 -110 -20 0 -24 5 -24 30 0 113 189 229 332 205 l40 -7 -55 -57 c-58 -59
-116 -144 -187 -274 -33 -61 -50 -81 -76 -92 -38 -16 -45 -35 -13 -35 19 0 18
-3 -12 -45 -59 -83 -131 -142 -192 -160 -69 -20 -119 -12 -160 25 -60 54 -45
194 28 259 97 85 217 37 183 -73 -14 -46 -67 -108 -110 -129 l-33 -17 54 0
c112 0 191 68 191 165 0 94 -57 145 -163 145 -152 0 -269 -99 -269 -230 0
-110 76 -195 197 -220 54 -11 126 -3 212 25 19 6 23 3 28 -21 19 -85 23 -82
88 55 53 112 87 165 115 176 9 4 55 6 102 6 165 -3 300 62 367 177 19 32 29
67 35 126 5 44 11 102 14 129 l6 47 -66 0 c-58 0 -126 19 -126 35 0 3 21 10
47 17 38 9 43 13 27 19 -28 11 -74 9 -121 -5z m21 -97 c137 -108 -3 -351 -217
-376 -29 -4 -48 -2 -46 3 2 5 42 79 88 164 91 167 129 230 141 230 4 0 19 -9
34 -21z"/>
<path d="M1220 1391 c-15 -28 -12 -126 4 -164 8 -18 25 -45 39 -62 l24 -29
-50 -60 c-28 -34 -63 -88 -79 -121 -24 -50 -28 -71 -27 -131 2 -63 -1 -76 -25
-106 -28 -38 -33 -58 -13 -59 6 0 41 -2 77 -3 36 -2 87 -9 113 -16 137 -38
365 77 407 206 36 107 -57 185 -165 140 -40 -17 -55 -42 -55 -90 0 -44 13 -53
31 -20 17 32 63 57 89 49 31 -10 35 -49 10 -101 -54 -110 -214 -155 -302 -85
-20 17 -23 28 -23 83 0 70 33 150 89 214 l31 35 65 -17 c129 -33 297 -4 383
67 53 44 69 80 65 148 -3 55 -2 56 30 73 69 34 63 34 -189 9 -110 -12 -201
-42 -301 -101 -36 -22 -71 -40 -76 -40 -30 0 -121 137 -122 183 0 23 -17 22
-30 -2z m611 -100 c49 -39 -9 -105 -120 -138 -59 -17 -204 -14 -223 5 -14 14
111 100 186 128 76 28 126 30 157 5z"/>
<path d="M140 1271 c0 -20 -7 -34 -20 -41 -27 -14 -25 -27 5 -34 15 -4 27 -16
31 -32 l6 -25 22 20 c12 12 34 21 49 21 27 0 27 0 11 25 -10 16 -14 34 -10 51
7 25 5 26 -20 20 -17 -5 -35 -1 -50 9 -23 15 -24 15 -24 -14z"/>
<path d="M1772 1030 c-7 -11 -23 -20 -37 -20 -29 0 -32 -12 -9 -31 10 -8 14
-23 12 -41 -4 -23 -2 -28 11 -22 21 9 42 9 64 -1 13 -6 17 -2 17 16 0 12 9 33
20 45 l21 21 -30 6 c-17 4 -32 14 -36 27 -8 25 -17 25 -33 0z"/>
</g>
</svg>
